<svg width="66" height="69" viewBox="0 0 66 69" fill="none" xmlns="http://www.w3.org/2000/svg">
<path fill-rule="evenodd" clip-rule="evenodd" d="M46.5669 10.5649C47.6523 10.7722 48.6805 11.1351 49.6277 11.6295C50.049 11.8495 50.4543 12.0954 50.8415 12.3654C51.9202 13.1175 52.8583 14.0556 53.6104 15.1343C53.8803 15.5215 54.1263 15.9268 54.3462 16.348C54.8407 17.2952 55.2035 18.3235 55.4108 19.4089C55.4193 19.4537 55.4277 19.4987 55.4357 19.5437C55.5085 19.9515 56.0935 19.9515 56.1663 19.5437C56.1743 19.4987 56.1825 19.4537 56.1911 19.4089C56.3985 18.3235 56.7613 17.2952 57.2557 16.348C57.4757 15.9268 57.7217 15.5215 57.9916 15.1343C58.7437 14.0556 59.6818 13.1175 60.7605 12.3654C61.1476 12.0954 61.5529 11.8495 61.9742 11.6295C62.9215 11.1351 63.9497 10.7722 65.0351 10.5649C65.0799 10.5564 65.1248 10.5481 65.1698 10.54C65.5777 10.4673 65.5777 9.88221 65.1698 9.80953C65.1248 9.80144 65.0799 9.79316 65.0351 9.7846C63.9497 9.57729 62.9215 9.21443 61.9742 8.72C61.5529 8.50004 61.1476 8.2541 60.7605 7.9841C59.6818 7.23203 58.7437 6.29396 57.9916 5.21526C57.7217 4.82809 57.4757 4.42281 57.2557 4.0015C56.7613 3.05428 56.3985 2.02606 56.1911 0.940643C56.1825 0.895823 56.1743 0.850898 56.1663 0.805888C56.0935 0.398037 55.5085 0.398037 55.4357 0.805888C55.4277 0.850898 55.4193 0.895823 55.4108 0.940643C55.2035 2.02606 54.8407 3.05428 54.3462 4.00149C54.1263 4.42281 53.8803 4.82809 53.6104 5.21526C52.8583 6.29396 51.9202 7.23203 50.8415 7.9841C50.4543 8.2541 50.049 8.50004 49.6277 8.72C48.6805 9.21443 47.6523 9.57729 46.5669 9.7846C46.5221 9.79316 46.4772 9.80144 46.4321 9.80953C46.0243 9.88221 46.0243 10.4673 46.4321 10.54C46.4772 10.5481 46.5221 10.5564 46.5669 10.5649ZM55.8009 11.7573C55.3137 11.191 54.7847 10.662 54.2184 10.1748C54.7847 9.68756 55.3137 9.15849 55.8009 8.59223C56.2882 9.15849 56.8173 9.68756 57.3835 10.1748C56.8173 10.662 56.2882 11.191 55.8009 11.7573ZM4.02898 17.2816C3.12643 16.948 2.18852 16.6855 1.22197 16.5008C1.151 16.4873 1.07989 16.4742 1.00861 16.4614C0.362853 16.3462 0.362853 15.42 1.00861 15.3047C1.07989 15.292 1.151 15.2789 1.22197 15.2654C2.18852 15.0807 3.12643 14.8182 4.02898 14.4846C4.56911 14.2849 5.09659 14.0598 5.61 13.8105C9.16515 12.0848 12.0443 9.20559 13.7702 5.65034C14.0193 5.13701 14.2445 4.60955 14.4441 4.0694C14.7778 3.16685 15.0403 2.22894 15.2249 1.26239C15.2384 1.19143 15.2516 1.12031 15.2643 1.04903C15.3795 0.403279 16.3058 0.403279 16.421 1.04903C16.4338 1.12031 16.4469 1.19143 16.4604 1.26239C16.6451 2.22894 16.9075 3.16685 17.2412 4.0694C17.4409 4.60954 17.666 5.13701 17.9153 5.65034C19.641 9.20559 22.5202 12.0848 26.0754 13.8105C26.5888 14.0598 27.1162 14.2849 27.6563 14.4846C28.5589 14.8182 29.4968 15.0807 30.4634 15.2654C30.5344 15.2789 30.6054 15.292 30.6767 15.3047C31.3225 15.42 31.3225 16.3462 30.6767 16.4614C30.6054 16.4742 30.5344 16.4873 30.4634 16.5008C29.4968 16.6855 28.5589 16.948 27.6563 17.2816C27.1162 17.4813 26.5888 17.7064 26.0754 17.9557C22.5202 19.6814 19.641 22.5606 17.9153 26.1158C17.666 26.6292 17.4409 27.1567 17.2412 27.6968C16.9075 28.5993 16.6451 29.5372 16.4604 30.5038C16.4469 30.5747 16.4338 30.6459 16.421 30.7171C16.3058 31.3629 15.3795 31.3629 15.2643 30.7171C15.2516 30.6459 15.2384 30.5747 15.2249 30.5038C15.0403 29.5372 14.7778 28.5993 14.4441 27.6968C14.2445 27.1567 14.0193 26.6292 13.7702 26.1158C12.0443 22.5606 9.16515 19.6814 5.61 17.9557C5.09659 17.7064 4.56912 17.4813 4.02898 17.2816ZM9.65388 15.8831C12.1189 17.4982 14.2276 19.6068 15.8427 22.0719C17.4577 19.6068 19.5664 17.4982 22.0315 15.8831C19.5664 14.268 17.4577 12.1594 15.8427 9.69431C14.2276 12.1594 12.1189 14.268 9.65388 15.8831ZM17.0445 44.985C16.4133 44.8149 15.7733 44.6656 15.1252 44.5379C15.0239 44.5181 14.9225 44.4987 14.8209 44.4797L14.79 44.474L14.7484 44.4664C14.6842 44.4547 14.6138 44.442 14.473 44.4169L14.4239 44.4082C13.3911 44.2128 13.3911 42.7339 14.4239 42.5385L14.473 42.5298C14.6138 42.5046 14.6842 42.492 14.7484 42.4803L14.79 42.4727L14.8209 42.467C14.9225 42.448 15.0239 42.4286 15.1251 42.4087C15.7732 42.2811 16.4133 42.1318 17.0445 41.9617C17.5837 41.8164 18.1165 41.6558 18.6424 41.4806C27.1512 38.6442 33.8468 31.9486 36.6832 23.4398C36.8584 22.9138 37.019 22.3811 37.1643 21.8418C37.3344 21.2107 37.4837 20.5706 37.6114 19.9225C37.6312 19.8213 37.6507 19.7198 37.6696 19.6182L37.6753 19.5874L37.6829 19.5457C37.6945 19.4825 37.7069 19.413 37.7313 19.2758L37.7324 19.2704L37.7411 19.2212C37.9365 18.1885 39.4154 18.1885 39.6108 19.2212L39.6196 19.2704C39.6448 19.4112 39.6573 19.4816 39.669 19.5457L39.6766 19.5874L39.6823 19.6182C39.7013 19.7198 39.7207 19.8213 39.7406 19.9225C39.8682 20.5706 40.0175 21.2107 40.1876 21.8418C40.3329 22.3811 40.4935 22.9138 40.6687 23.4398C43.5051 31.9486 50.2007 38.6442 58.7095 41.4806C59.2355 41.6558 59.7682 41.8164 60.3075 41.9617C60.9386 42.1318 61.5787 42.2811 62.2268 42.4087C62.328 42.4286 62.4295 42.448 62.5311 42.467L62.5619 42.4727L62.6036 42.4803L62.6695 42.4923L62.8789 42.5298L62.9281 42.5385C63.9608 42.7339 63.9608 44.2128 62.9281 44.4082L62.8789 44.417L62.7181 44.4457L62.6036 44.4664L62.5619 44.474L62.5311 44.4797C62.4295 44.4987 62.328 44.5181 62.2268 44.5379C61.5787 44.6656 60.9386 44.8149 60.3075 44.985C59.7682 45.1303 59.2355 45.2909 58.7095 45.4661C50.2007 48.3025 43.5051 54.9981 40.6687 63.5069C40.4935 64.0328 40.3329 64.5656 40.1876 65.1048C40.0175 65.736 39.8682 66.3761 39.7406 67.0242C39.7207 67.1254 39.7013 67.2268 39.6823 67.3284L39.6766 67.3593L39.669 67.4009C39.6574 67.4642 39.6451 67.5336 39.6206 67.6708L39.6108 67.7254C39.4154 68.7582 37.9365 68.7582 37.7411 67.7254L37.7324 67.6763C37.7073 67.5357 37.6946 67.465 37.6829 67.4009L37.6753 67.3593L37.6696 67.3284C37.6507 67.2268 37.6312 67.1254 37.6114 67.0242C37.4837 66.3761 37.3344 65.736 37.1643 65.1048C37.019 64.5656 36.8584 64.0328 36.6832 63.5069C33.8468 54.9981 27.1512 48.3025 18.6424 45.4661C18.1165 45.2909 17.5837 45.1303 17.0445 44.985ZM23.8034 43.4733C30.2731 46.6332 35.5161 51.8762 38.676 58.3459C41.8358 51.8762 47.0788 46.6332 53.5485 43.4733C47.0788 40.3135 41.8358 35.0705 38.676 28.6008C35.5161 35.0705 30.2731 40.3135 23.8034 43.4733Z" fill="#118AB2"/>
</svg>
