<svg width="24" height="24" viewBox="0 0 24 24" fill="none" xmlns="http://www.w3.org/2000/svg">
<g clip-path="url(#clip0_20_446)">
<path d="M14.352 7.29599H15.528C15.8399 7.29599 16.139 7.17209 16.3596 6.95159C16.5801 6.73099 16.704 6.43189 16.704 6.11999C16.704 5.80809 16.5801 5.50899 16.3596 5.28839C16.1391 5.06789 15.8399 4.94399 15.528 4.94399H14.352C14.0401 4.94399 13.741 5.06789 13.5205 5.28839C13.3 5.50899 13.176 5.80809 13.176 6.11999C13.176 6.43189 13.3 6.73099 13.5205 6.95159C13.741 7.17209 14.0401 7.29599 14.352 7.29599ZM14.352 12H15.528C15.8399 12 16.139 11.8761 16.3596 11.6556C16.5802 11.4351 16.704 11.1359 16.704 10.824C16.704 10.5121 16.5801 10.213 16.3596 9.99249C16.1391 9.77199 15.8399 9.64799 15.528 9.64799H14.352C14.0401 9.64799 13.741 9.77199 13.5205 9.99249C13.3 10.213 13.176 10.5121 13.176 10.824C13.176 11.1359 13.3 11.4351 13.5205 11.6556C13.741 11.8761 14.0401 12 14.352 12ZM8.47199 7.29599H9.64799C9.95989 7.29599 10.2591 7.17209 10.4796 6.95159C10.7001 6.73099 10.824 6.43189 10.824 6.11999C10.824 5.80809 10.7001 5.50899 10.4796 5.28839C10.2591 5.06789 9.95989 4.94399 9.64799 4.94399H8.47199C8.16009 4.94399 7.86099 5.06789 7.64039 5.28839C7.41989 5.50899 7.29599 5.80809 7.29599 6.11999C7.29599 6.43189 7.41989 6.73099 7.64039 6.95159C7.86099 7.17209 8.16009 7.29599 8.47199 7.29599ZM8.47199 12H9.64799C9.95989 12 10.2591 11.8761 10.4796 11.6556C10.7001 11.4351 10.824 11.1359 10.824 10.824C10.824 10.5121 10.7001 10.213 10.4796 9.99249C10.2591 9.77199 9.95989 9.64799 9.64799 9.64799H8.47199C8.16009 9.64799 7.86099 9.77199 7.64039 9.99249C7.41989 10.213 7.29599 10.5121 7.29599 10.824C7.29599 11.1359 7.41989 11.4351 7.64039 11.6556C7.86099 11.8761 8.16009 12 8.47199 12ZM22.584 21.408H21.408V1.41599C21.408 1.10409 21.2841 0.80499 21.0636 0.58439C20.8431 0.36389 20.5439 0.23999 20.232 0.23999H3.76799C3.45609 0.23999 3.15699 0.36389 2.93639 0.58439C2.71589 0.80499 2.59199 1.10409 2.59199 1.41599V21.408H1.41599C1.10409 21.408 0.80499 21.532 0.58439 21.7525C0.36389 21.973 0.23999 22.2721 0.23999 22.584C0.23999 22.8959 0.36389 23.1951 0.58439 23.4156C0.80499 23.6361 1.10409 23.76 1.41599 23.76H22.584C22.8959 23.76 23.195 23.6361 23.4156 23.4156C23.6362 23.1951 23.76 22.8959 23.76 22.584C23.76 22.2721 23.6361 21.973 23.4156 21.7525C23.1951 21.532 22.8959 21.408 22.584 21.408ZM13.176 21.408H10.824V16.704H13.176V21.408ZM19.056 21.408H15.528V15.528C15.528 15.2161 15.4041 14.917 15.1836 14.6965C14.9631 14.476 14.6639 14.352 14.352 14.352H9.64799C9.33609 14.352 9.03699 14.476 8.81639 14.6965C8.59589 14.917 8.47199 15.2161 8.47199 15.528V21.408H4.94399V2.59199H19.056V21.408Z" fill="#118AB2"/>
</g>
<defs>
<clipPath id="clip0_20_446">
<rect width="24" height="24" fill="white"/>
</clipPath>
</defs>
</svg>
