<svg width="44" height="44" viewBox="0 0 44 44" fill="none" xmlns="http://www.w3.org/2000/svg">
<rect width="44" height="44" rx="12" fill="#99AEBB"/>
<path d="M22 8.25V35.75" stroke="white" stroke-width="1.5" stroke-linecap="round" stroke-linejoin="round"/>
<path d="M28.25 13.25H18.875C17.7147 13.25 16.6019 13.7109 15.7814 14.5314C14.9609 15.3519 14.5 16.4647 14.5 17.625C14.5 18.7853 14.9609 19.8981 15.7814 20.7186C16.6019 21.5391 17.7147 22 18.875 22H25.125C26.2853 22 27.3981 22.4609 28.2186 23.2814C29.0391 24.1019 29.5 25.2147 29.5 26.375C29.5 27.5353 29.0391 28.6481 28.2186 29.4686C27.3981 30.2891 26.2853 30.75 25.125 30.75H14.5" stroke="white" stroke-width="1.5" stroke-linecap="round" stroke-linejoin="round"/>
</svg>
