<svg width="40" height="41" viewBox="0 0 40 41" fill="none" xmlns="http://www.w3.org/2000/svg">
<path d="M39.545 5.4495C39.795 5.4495 39.9995 5.24496 39.9995 4.99496V0.699538C39.9995 0.449538 39.795 0.244995 39.545 0.244995H35.2496C34.9996 0.244995 34.795 0.449538 34.795 0.699538V2.395H5.20451V0.699538C5.20451 0.449538 4.99996 0.244995 4.74996 0.244995H0.454543C0.204543 0.244995 0 0.449538 0 0.699538V4.99496C0 5.24496 0.204543 5.4495 0.454543 5.4495H2.15001V35.0359H0.454543C0.204543 35.0359 0 35.2405 0 35.4905V39.7904C0 40.0404 0.204543 40.245 0.454543 40.245H4.74996C4.99996 40.245 5.20451 40.0404 5.20451 39.7904V38.095H34.791V39.7904C34.791 40.0404 34.9955 40.245 35.2455 40.245H39.5455C39.7955 40.245 40 40.0404 40 39.7904V35.495C40 35.245 39.7955 35.0405 39.5455 35.0405H37.85V5.44997L39.545 5.4495ZM5.20454 4.99496V3.30409H21.1451C22.7724 5.52226 23.636 8.1495 23.636 10.927C23.636 13.4452 22.9087 15.8725 21.545 17.9722H18.1814C17.9314 17.9722 17.7269 18.1768 17.7269 18.4268V21.7904C15.6269 23.154 13.1997 23.8813 10.6817 23.8813C7.90448 23.8813 5.27718 23.0176 3.05877 21.3904V5.44985H4.74964C5.00419 5.44985 5.20454 5.2495 5.20454 4.99496ZM21.3633 18.8811V21.6084H18.636V18.8811H21.3633ZM0.908998 4.54056V1.15423H4.29533V4.54056H0.908998ZM4.29533 39.336H0.908998V35.9497H4.29533V39.336ZM5.20442 37.186V35.4951C5.20442 35.2451 4.99988 35.0406 4.74988 35.0406H3.05901V22.4996C5.31808 23.995 7.93171 24.7905 10.6819 24.7905C13.4001 24.7905 16.0183 24.0041 18.2775 22.5178H21.8184C22.0684 22.5178 22.2729 22.3133 22.2729 22.0633V18.5224C23.7593 16.2633 24.5456 13.6452 24.5456 10.9268C24.5456 8.17679 23.7502 5.56316 22.2547 3.30386H34.7958V4.99473C34.7958 5.24473 35.0003 5.44927 35.2503 5.44927H36.9412V30.9717C36.7184 30.7854 36.423 30.7308 36.1548 30.8081L34.7502 26.6627C34.7048 26.5309 34.6002 26.4263 34.4684 26.3809L24.0411 22.7763C23.8775 22.7218 23.6957 22.7627 23.5729 22.8854L22.8548 23.6082C22.732 23.7309 22.6911 23.9127 22.7457 24.0763L26.3502 34.5036C26.3956 34.6354 26.5002 34.74 26.632 34.7854L30.7774 36.19C30.6911 36.4809 30.7593 36.8036 30.9865 37.0309L31.1365 37.1809H5.20503L5.20442 37.186ZM27.1319 33.9951L23.8637 24.5453L28.5318 29.2134C28.3818 29.477 28.2955 29.768 28.2955 30.0771C28.2955 30.5452 28.4773 30.9816 28.8091 31.3089C29.15 31.6498 29.5955 31.818 30.0454 31.818C30.4909 31.818 30.9409 31.6498 31.2773 31.3089C31.6091 30.9771 31.7909 30.5407 31.7909 30.0771C31.7909 29.6089 31.6091 29.1725 31.2773 28.8407C30.7091 28.2725 29.8455 28.1862 29.1773 28.568L24.5091 23.9044L33.959 27.1725L35.3999 31.418L31.3818 35.4361L27.1319 33.9951ZM29.2091 30.0815C29.2091 29.8587 29.2955 29.6497 29.4546 29.4906C29.6182 29.3269 29.8318 29.2451 30.0455 29.2451C30.2591 29.2451 30.4727 29.3269 30.6363 29.4906C30.7954 29.6497 30.8818 29.8588 30.8818 30.0815C30.8818 30.3042 30.7954 30.5133 30.6363 30.6724C30.3091 30.9996 29.7772 30.9996 29.4546 30.6724C29.2955 30.5133 29.2091 30.3042 29.2091 30.0815ZM34.7955 35.4951V37.186H32.4273L31.6727 36.4314L36.4 31.7042L36.9454 32.2496V35.036H35.2546C34.9955 35.0405 34.7955 35.2405 34.7955 35.4951ZM39.0909 35.9496V39.336H35.7045V35.9496H39.0909ZM35.7045 4.54094V1.15461H39.0909V4.54094H35.7045Z" fill="black"/>
</svg>
