<svg width="70" height="69" viewBox="0 0 70 69" fill="none" xmlns="http://www.w3.org/2000/svg">
<path d="M68.5932 9.07006C69.0229 9.07006 69.3744 8.7185 69.3744 8.28881V0.906007C69.3744 0.476317 69.0229 0.124756 68.5932 0.124756H61.2104C60.7807 0.124756 60.4291 0.476317 60.4291 0.906007V3.82011H9.57012V0.906007C9.57012 0.476317 9.21856 0.124756 8.78887 0.124756H1.40607C0.976377 0.124756 0.624817 0.476317 0.624817 0.906007V8.28881C0.624817 8.7185 0.976377 9.07006 1.40607 9.07006H4.32017V59.9221H1.40607C0.976377 59.9221 0.624817 60.2736 0.624817 60.7033V68.0939C0.624817 68.5236 0.976377 68.8752 1.40607 68.8752H8.78887C9.21856 68.8752 9.57012 68.5236 9.57012 68.0939V65.1798H60.4221V68.0939C60.4221 68.5236 60.7737 68.8752 61.2034 68.8752H68.594C69.0237 68.8752 69.3752 68.5236 69.3752 68.0939V60.7111C69.3752 60.2814 69.0237 59.9299 68.594 59.9299H65.6799V9.07086L68.5932 9.07006ZM9.57017 8.28881V5.38261H36.9682C39.7651 9.19511 41.2494 13.7107 41.2494 18.4846C41.2494 22.8127 39.9994 26.9846 37.6556 30.5936H31.8744C31.4447 30.5936 31.0931 30.9452 31.0931 31.3749V37.1561C27.4837 39.4999 23.3119 40.7499 18.9841 40.7499C14.2107 40.7499 9.69502 39.2655 5.88212 36.4687V9.07066H8.78832C9.22582 9.07066 9.57017 8.72631 9.57017 8.28881ZM37.3432 32.1558V36.8433H32.6557V32.1558H37.3432ZM2.18717 7.50781V1.68751H8.00747V7.50781H2.18717ZM8.00747 67.3128H2.18717V61.4925H8.00747V67.3128ZM9.56997 63.6175V60.7113C9.56997 60.2816 9.21841 59.9301 8.78872 59.9301H5.88252V38.3751C9.76532 40.9454 14.2575 42.3126 18.9845 42.3126C23.6564 42.3126 28.1564 40.961 32.0395 38.4064H38.1254C38.5551 38.4064 38.9067 38.0548 38.9067 37.6251V31.5392C41.4614 27.6564 42.8129 23.1564 42.8129 18.4842C42.8129 13.7576 41.4457 9.26541 38.8754 5.38221H60.4304V8.28841C60.4304 8.7181 60.7819 9.06966 61.2116 9.06966H64.1178V52.9367C63.735 52.6163 63.2272 52.5226 62.7662 52.6554L60.3521 45.5304C60.274 45.3038 60.0943 45.1242 59.8678 45.046L41.9457 38.8507C41.6645 38.757 41.352 38.8273 41.1411 39.0382L39.9067 40.2804C39.6957 40.4914 39.6254 40.8039 39.7192 41.0851L45.9145 59.0071C45.9926 59.2337 46.1723 59.4134 46.3988 59.4915L53.5238 61.9056C53.3754 62.4056 53.4926 62.9603 53.8832 63.3509L54.141 63.6087H9.57102L9.56997 63.6175ZM47.258 58.1331L41.6408 41.8911L49.6642 49.9145C49.4064 50.3676 49.2579 50.8676 49.2579 51.3989C49.2579 52.2036 49.5704 52.9536 50.1407 53.5161C50.7267 54.1021 51.4923 54.3911 52.2657 54.3911C53.0314 54.3911 53.8048 54.1021 54.3829 53.5161C54.9532 52.9458 55.2657 52.1958 55.2657 51.3989C55.2657 50.5942 54.9532 49.8442 54.3829 49.2739C53.4064 48.2973 51.922 48.1489 50.7735 48.8052L42.7501 40.7896L58.9921 46.4068L61.4687 53.7037L54.5625 60.6099L47.258 58.1331ZM50.8283 51.4065C50.8283 51.0237 50.9767 50.6643 51.2501 50.3909C51.5314 50.1097 51.8986 49.969 52.2657 49.969C52.6329 49.969 53.0001 50.1096 53.2813 50.3909C53.5548 50.6643 53.7032 51.0237 53.7032 51.4065C53.7032 51.7893 53.5548 52.1487 53.2813 52.4221C52.7188 52.9846 51.8047 52.9846 51.2501 52.4221C50.9767 52.1487 50.8283 51.7893 50.8283 51.4065ZM60.4299 60.7112V63.6174H56.3596L55.0627 62.3205L63.1877 54.1955L64.1252 55.133V59.9221H61.219C60.7737 59.9299 60.4299 60.2737 60.4299 60.7112ZM67.8127 61.4925V67.3128H61.9924V61.4925H67.8127ZM61.9924 7.50846V1.68816H67.8127V7.50846H61.9924Z" fill="#118AB2"/>
</svg>
