<svg width="64" height="64" viewBox="0 0 64 64" fill="none" xmlns="http://www.w3.org/2000/svg">
<rect width="64" height="63.5349" rx="12" fill="#6395EE"/>
<path d="M47.3488 43.6279C47.3488 43.8837 47.1395 44.093 46.8837 44.093H44.5581V46.4186C44.5581 46.6744 44.3488 46.8837 44.093 46.8837C43.8372 46.8837 43.6279 46.6744 43.6279 46.4186V44.093H41.3023C41.0465 44.093 40.8372 43.8837 40.8372 43.6279C40.8372 43.3721 41.0465 43.1628 41.3023 43.1628H43.6279V40.8372C43.6279 40.5814 43.8372 40.3721 44.093 40.3721C44.3488 40.3721 44.5581 40.5814 44.5581 40.8372V43.1628H46.8837C47.1395 43.1628 47.3488 43.3721 47.3488 43.6279ZM52 43.6279C52 47.986 48.4512 51.5349 44.093 51.5349C39.7349 51.5349 36.186 47.986 36.186 43.6279C36.186 39.2698 39.7349 35.7209 44.093 35.7209C48.4512 35.7209 52 39.2698 52 43.6279ZM51.0698 43.6279C51.0698 39.7814 47.9395 36.6512 44.093 36.6512C40.2465 36.6512 37.1163 39.7814 37.1163 43.6279C37.1163 47.4744 40.2465 50.6047 44.093 50.6047C47.9395 50.6047 51.0698 47.4744 51.0698 43.6279Z" fill="#F7F7F7"/>
<path d="M37.351 19.2092H19.0714C18.6063 19.2092 18.1885 19.5817 18.1885 20.0922C18.1885 20.6046 18.5609 20.9752 19.0714 20.9752H37.351C37.8161 20.9752 38.234 20.6027 38.234 20.0922C38.234 19.5816 37.8615 19.2092 37.351 19.2092Z" fill="#F7F7F7"/>
<path d="M37.351 26.6036H19.0714C18.6063 26.6036 18.1885 26.9761 18.1885 27.4866C18.1885 27.9517 18.5609 28.3696 19.0714 28.3696H37.351C37.8161 28.3696 38.234 27.9971 38.234 27.4866C38.234 27.0233 37.8615 26.6036 37.351 26.6036Z" fill="#F7F7F7"/>
<path d="M38.2338 34.8832C38.2338 34.418 37.8613 34.0002 37.3508 34.0002H19.0713C18.6061 34.0002 18.1883 34.3726 18.1883 34.8832C18.1883 35.3483 18.5607 35.7661 19.0713 35.7661H37.3508C37.8613 35.7207 38.2338 35.3483 38.2338 34.8832Z" fill="#F7F7F7"/>
<path d="M18.8864 41.3023C18.444 41.3023 18.0465 41.6947 18.0465 42.2326C18.0465 42.7226 18.4008 43.1628 18.8864 43.1628H34.4159C34.8584 43.1628 35.2558 42.7704 35.2558 42.2326C35.2558 41.7425 34.9015 41.3023 34.4159 41.3023H18.8864Z" fill="#F7F7F7"/>
<path d="M36.6512 48.7442L16.4659 48.6041C14.9779 48.6041 13.7224 47.394 13.7224 45.8607V16.4658C13.7224 14.9778 14.9325 13.7677 16.4659 13.7677H39.4891C41.2569 13.7677 42.6977 15.2103 42.6977 16.9763V34.3256C42.6977 34.7907 43.1174 35.2558 43.6279 35.2558C44.1403 35.2558 44.4673 34.8361 44.4673 34.3256V16.9763C44.4673 14.2328 42.2343 12 39.491 12H16.4659C14.0004 12 12 14.0004 12 16.4659V45.8607C12 48.3262 14.0004 50.3266 16.4659 50.3266L36.6512 50.1395C37.1163 50.1395 37.5814 49.9524 37.5814 49.4419C37.536 48.9749 37.1163 48.7442 36.6512 48.7442Z" fill="#F7F7F7"/>
</svg>
