<svg width="64" height="64" viewBox="0 0 64 64" fill="none" xmlns="http://www.w3.org/2000/svg">
<rect width="64" height="63.2334" rx="12" fill="#6395EE"/>
<path d="M39.4942 49.5855C38.3136 50.1037 37.0756 50.5085 35.795 50.7864C34.4468 51.0785 33.0477 51.2334 31.6162 51.2334C26.2 51.2334 21.2953 49.0374 17.7454 45.4875C14.1961 41.9382 12 37.033 12 31.6167C12 26.2005 14.1961 21.2953 17.7454 17.7459C21.2953 14.1961 26.2 12 31.6162 12C37.033 12 41.9376 14.1961 45.487 17.7459C49.0369 21.2953 51.2329 26.2 51.2329 31.6167C51.2329 32.6652 51.1481 33.7046 50.9855 34.7262C50.8357 35.667 50.6213 36.5798 50.348 37.4571C51.3853 38.8429 52 40.564 52 42.4274C52 44.7194 51.0704 46.7951 49.5687 48.2967C48.0671 49.7984 45.9914 50.728 43.6994 50.728C42.1647 50.728 40.7276 50.3114 39.4942 49.5855ZM49.3315 36.3304C49.49 35.7366 49.6185 35.1341 49.7155 34.525C49.8644 33.5877 49.9426 32.6159 49.9426 31.6167C49.9426 26.5561 47.8908 21.974 44.5746 18.6583C41.259 15.3421 36.6769 13.2903 31.6162 13.2903C26.5561 13.2903 21.974 15.3421 18.6578 18.6583C15.3416 21.9745 13.2903 26.5566 13.2903 31.6167C13.2903 36.6459 15.3172 41.2026 18.5978 44.5142C18.6436 41.8096 19.5264 39.2971 20.9966 37.2265C22.3428 35.3312 24.1832 33.8072 26.3244 32.8466C26.1146 32.6739 25.913 32.491 25.7209 32.299C24.2127 30.7907 23.279 28.7054 23.279 26.4037C23.279 24.102 24.2127 22.0166 25.7209 20.5084C27.2292 19.0002 29.3145 18.0665 31.6162 18.0665C33.9169 18.0665 36.0007 19.0002 37.5095 20.5084C39.0202 22.0166 39.9539 24.102 39.9539 26.4037C39.9539 28.7054 39.0202 30.7907 37.512 32.299L37.4739 32.334C37.2925 32.5133 37.1031 32.684 36.906 32.8461C37.3926 33.0645 37.8645 33.3129 38.3202 33.5888C38.9684 33.9784 39.5811 34.4264 40.1505 34.9222C41.227 34.4127 42.4294 34.1267 43.6994 34.1267C45.8731 34.1267 47.8522 34.9634 49.3315 36.3304ZM38.9654 35.6085C38.5514 35.2743 38.114 34.9669 37.6558 34.6901C37.0192 34.3025 36.3401 33.9743 35.6263 33.7132C34.4361 34.368 33.0696 34.7409 31.6162 34.7409C30.1628 34.7409 28.7968 34.3685 27.6066 33.7147C25.3521 34.5418 23.4141 36.0444 22.0451 37.9722C20.6867 39.8853 19.8861 42.2211 19.8861 44.7362V45.6968C23.0641 48.3475 27.1545 49.9431 31.6162 49.9431C32.9588 49.9431 34.2664 49.7989 35.5227 49.5266C36.4681 49.3213 37.385 49.044 38.2654 48.7021C38.1155 48.5721 37.9702 48.4369 37.83 48.2967C36.3284 46.7951 35.3987 44.7194 35.3987 42.4274C35.3987 40.1353 36.3284 38.0596 37.83 36.558C38.179 36.209 38.559 35.8915 38.9654 35.6085ZM48.6564 37.4703C47.3884 36.2024 45.6353 35.417 43.6994 35.417C41.7634 35.417 40.0103 36.2024 38.7424 37.4703C37.4744 38.7383 36.689 40.4914 36.689 42.4274C36.689 44.3633 37.4744 46.1164 38.7424 47.3844C40.0103 48.6523 41.7634 49.4377 43.6994 49.4377C45.6353 49.4377 47.3884 48.6523 48.6564 47.3844C49.9243 46.1164 50.7097 44.3633 50.7097 42.4274C50.7097 40.4919 49.9243 38.7383 48.6564 37.4703ZM43.0547 38.083C43.0547 37.7269 43.3438 37.4378 43.6999 37.4378C44.056 37.4378 44.345 37.7269 44.345 38.083V41.7827H48.0437C48.3998 41.7827 48.6889 42.0718 48.6889 42.4279C48.6889 42.784 48.3998 43.073 48.0437 43.073H44.345V46.7722C44.345 47.1283 44.056 47.4174 43.6999 47.4174C43.3438 47.4174 43.0547 47.1283 43.0547 46.7722V43.073H39.355C38.9989 43.073 38.7098 42.784 38.7098 42.4279C38.7098 42.0718 38.9989 41.7827 39.355 41.7827H43.0547V38.083ZM36.6001 21.4203C35.3261 20.1457 33.5634 19.3568 31.6162 19.3568C29.6706 19.3568 27.9079 20.1462 26.6333 21.4208C25.3587 22.6953 24.5693 24.4581 24.5693 26.4037C24.5693 28.3493 25.3587 30.112 26.6333 31.3866C27.9079 32.6612 29.6706 33.4506 31.6162 33.4506C33.5476 33.4506 35.2971 32.6744 36.5697 31.4186L36.5996 31.3866C37.8742 30.112 38.6636 28.3493 38.6636 26.4037C38.6636 24.4581 37.8742 22.6953 36.6001 21.4203Z" fill="#F7F7F7"/>
</svg>
