<svg width="74" height="69" viewBox="0 0 74 69" fill="none" xmlns="http://www.w3.org/2000/svg">
<path d="M6.05904 45.1501C5.16899 45.1501 4.28185 44.9426 3.46093 44.5367C2.05663 43.839 1.00715 42.6332 0.511006 41.1417C-0.511382 38.0834 1.1455 34.7486 4.20672 33.7142C4.35106 33.6661 4.50442 33.6781 4.63974 33.7443C4.77506 33.8104 4.8773 33.9277 4.92541 34.072L8.29934 44.125C8.39858 44.4197 8.2392 44.7415 7.9445 44.8407C7.32504 45.0482 6.69052 45.1501 6.05904 45.1501ZM4.04129 35.0009C1.91229 36.0203 0.817699 38.4952 1.58451 40.7835C1.98445 41.9864 2.83245 42.9606 3.96615 43.523C4.92842 44.0011 6.00192 44.1364 7.0364 43.9169L4.04129 35.0009Z" fill="#118AB2"/>
<path d="M26.1946 58.4864C26.0894 58.4864 25.9811 58.4563 25.8909 58.3991C25.7496 58.3089 25.6564 58.1616 25.6323 57.9932L24.6911 50.7101C24.655 50.4394 24.8204 50.1808 25.082 50.0996L26.5735 49.6275C27.638 49.2907 28.7687 49.387 29.761 49.9012C30.7533 50.4154 31.484 51.2845 31.8208 52.3459C32.1516 53.3864 32.0524 54.5501 31.5472 55.5334C31.048 56.5047 30.1549 57.2535 29.1024 57.5903L26.369 58.4623C26.3088 58.4774 26.2518 58.4864 26.1946 58.4864ZM25.8729 51.0318L26.6667 57.1753L28.7536 56.5107C29.5234 56.2671 30.173 55.7229 30.5338 55.0162C30.9036 54.2945 30.9788 53.4465 30.7352 52.6858C30.4887 51.9099 29.9564 51.2785 29.2347 50.9026C28.513 50.5267 27.6861 50.4575 26.9133 50.7011L25.8729 51.0318Z" fill="#118AB2"/>
<path d="M61.3534 30.9086C61.2752 30.9086 61.197 30.8936 61.1249 30.8605C60.9775 30.7973 60.8662 30.674 60.8151 30.5237L55.0205 13.236C54.9694 13.0857 54.9844 12.9203 55.0626 12.782C55.1408 12.6436 55.2731 12.5414 55.4265 12.5053C59.5101 11.546 63.9637 14.5291 65.5695 19.3073C67.1693 24.0825 65.4192 29.1586 61.5821 30.8606C61.51 30.8937 61.4316 30.9086 61.3534 30.9086ZM56.3045 13.4978L61.6842 29.5406C64.595 27.8387 65.8339 23.6498 64.4988 19.6686C63.1606 15.6842 59.6457 13.0918 56.3045 13.4978Z" fill="#118AB2"/>
<path d="M61.1127 45.2009H61.1096L29.4273 45.1798C29.1837 45.1798 28.9672 45.0235 28.892 44.7949L20.9445 21.1201C20.8663 20.8886 20.9445 20.636 21.1399 20.4886L46.3905 1.35496C47.4791 0.531032 48.8533 0.287464 50.1584 0.690399C51.4634 1.09335 52.4648 2.06767 52.8978 3.36373L65.0855 39.6742C65.5215 40.9703 65.311 42.3506 64.5141 43.4572C63.7203 44.5668 62.4779 45.2009 61.1127 45.2009ZM61.1096 44.0702H61.1127C62.108 44.0702 63.0162 43.6071 63.5965 42.7952C64.1799 41.9863 64.3303 40.9789 64.0145 40.0317L51.8269 3.72125C51.5081 2.774 50.7804 2.06439 49.8271 1.76962C48.8769 1.47794 47.8695 1.65235 47.0756 2.25377L22.1468 21.1411L29.8359 44.0461L61.1096 44.0702Z" fill="#118AB2"/>
<path d="M23.3193 68.5C21.482 68.5 19.7679 67.3392 19.1575 65.5049L13.7899 49.5105C13.7327 49.3361 13.7598 49.1467 13.868 48.9993C13.9733 48.852 14.1447 48.7648 14.3281 48.7648C14.9837 48.7648 15.6332 48.6565 16.2647 48.443L24.36 45.7156C24.5194 45.6614 24.6938 45.6825 24.8351 45.7697C24.9795 45.8569 25.0757 46.0043 25.0998 46.1696L27.6468 63.4781C27.9595 65.5801 26.7236 67.5978 24.7088 68.2744C24.2458 68.4278 23.7794 68.5 23.3193 68.5ZM15.101 49.8534L20.2311 65.1442C20.7994 66.8462 22.6458 67.7663 24.3478 67.1981C25.8423 66.6959 26.7565 65.2013 26.5249 63.6407L24.0772 47.0027L16.6256 49.5136C16.1264 49.682 15.6152 49.7963 15.101 49.8534Z" fill="#118AB2"/>
<path d="M14.2866 49.8921C13.1739 49.8921 12.0643 49.6335 11.0389 49.1223C9.29179 48.2532 7.98672 46.7557 7.36425 44.9033L3.70765 34.0089C2.4266 30.19 4.48947 26.0398 8.31151 24.7558L21.299 20.3955C21.5967 20.2993 21.9155 20.4556 22.0147 20.7533L29.9622 44.4281C30.0615 44.7258 29.9021 45.0446 29.6044 45.1438L16.6169 49.5041C15.8561 49.7657 15.0714 49.8921 14.2866 49.8921ZM21.1246 21.6523L8.67216 25.8321C5.44257 26.9147 3.69849 30.4239 4.784 33.6504L8.4406 44.5447C8.96384 46.1084 10.0674 47.3744 11.5439 48.1081C13.0204 48.8418 14.6953 48.9592 16.259 48.4329L28.7115 44.253L21.1246 21.6523Z" fill="#118AB2"/>
<path d="M8.0857 31.5914C7.84815 31.5914 7.62863 31.441 7.55044 31.2065C7.45121 30.9088 7.61059 30.59 7.90828 30.4908L18.6918 26.8703C18.9895 26.7711 19.3083 26.9304 19.4075 27.2281C19.5067 27.5258 19.3474 27.8446 19.0497 27.9438L8.26613 31.5643C8.20599 31.5824 8.14585 31.5914 8.0857 31.5914Z" fill="#118AB2"/>
<path d="M9.61067 36.1348C9.37311 36.1348 9.15359 35.9845 9.07541 35.7499C8.97617 35.4522 9.13555 35.1335 9.43325 35.0343L20.2168 31.4137C20.5145 31.3145 20.8332 31.4739 20.9325 31.7716C21.0317 32.0693 20.8723 32.388 20.5746 32.4873L9.79109 36.1078C9.73095 36.1228 9.67081 36.1348 9.61067 36.1348Z" fill="#118AB2"/>
<path d="M11.1349 40.6751C10.8973 40.6751 10.6778 40.5248 10.5996 40.2902C10.5004 39.9925 10.6598 39.6738 10.9575 39.5745L21.741 35.954C22.0387 35.8548 22.3605 36.0142 22.4567 36.3119C22.5559 36.6096 22.3965 36.9283 22.0988 37.0276L11.3153 40.6481C11.2552 40.6661 11.195 40.6751 11.1349 40.6751Z" fill="#118AB2"/>
<path d="M12.6598 45.2163C12.4223 45.2163 12.2028 45.066 12.1246 44.8314C12.0253 44.5337 12.1847 44.215 12.4824 44.1157L23.2659 40.4952C23.5636 40.399 23.8824 40.5554 23.9816 40.8531C24.0809 41.1508 23.9215 41.4695 23.6238 41.5688L12.8403 45.1893C12.7801 45.2043 12.72 45.2163 12.6598 45.2163Z" fill="#118AB2"/>
<path d="M66.9348 17.1359C66.7123 17.1359 66.4988 17.0036 66.4116 16.781C66.2943 16.4924 66.4326 16.1616 66.7243 16.0443L70.8109 14.3904C71.0996 14.2732 71.4304 14.4115 71.5476 14.7032C71.6649 14.9919 71.5266 15.3226 71.2349 15.4399L67.1483 17.0938C67.0761 17.1238 67.0039 17.1359 66.9348 17.1359Z" fill="#118AB2"/>
<path d="M65.5423 13.6602C65.416 13.6602 65.2897 13.6181 65.1874 13.5339C64.9438 13.3385 64.9078 12.9806 65.1032 12.737L67.8818 9.31199C68.0772 9.06842 68.4351 9.03233 68.6787 9.22779C68.9223 9.42325 68.9583 9.78109 68.7629 10.0247L65.9843 13.4497C65.8731 13.5881 65.7076 13.6602 65.5423 13.6602Z" fill="#118AB2"/>
<path d="M73.2255 20.7416H73.2075L68.8021 20.5973C68.4894 20.5883 68.2458 20.3267 68.2548 20.0139C68.2638 19.7012 68.5435 19.4426 68.8382 19.4666L73.2436 19.611C73.5563 19.62 73.7999 19.8816 73.7909 20.1944C73.7788 20.5011 73.5293 20.7416 73.2255 20.7416Z" fill="#118AB2"/>
</svg>
