<svg width="70" height="69" viewBox="0 0 70 69" fill="none" xmlns="http://www.w3.org/2000/svg">
<path d="M49.7649 26.6262C49.7304 34.0093 46.1078 41.0993 39.9839 45.2911C33.7047 49.6038 25.6143 50.5008 18.5416 47.689C11.8484 45.0151 6.74227 39.0465 5.01722 32.0601C3.22318 24.8149 5.18973 16.9142 10.2269 11.394C16.4715 4.54558 26.218 2.21677 34.9295 5.32185C35.8093 5.63236 36.8098 4.97684 37.0513 4.11432C37.3101 3.16555 36.7235 2.30303 35.8438 1.99252C26.977 -1.16431 16.989 0.784986 9.88185 6.9089C3.44743 12.4635 0.049094 21.1923 1.08412 29.6277C2.11915 38.0287 7.12178 45.6017 14.6085 49.6383C22.2504 53.7439 31.6174 53.7784 39.2766 49.7418C46.8323 45.7742 51.9384 38.1667 52.9907 29.7485C53.1287 28.7135 53.1805 27.6784 53.1805 26.6262C53.215 24.4181 49.7649 24.4009 49.7649 26.6262Z" fill="#118AB2"/>
<path d="M43.3477 45.1876C45.918 47.7579 48.4711 50.311 51.0414 52.8813C55.1297 56.9697 59.2181 61.058 63.3065 65.1464C64.2552 66.0952 65.204 67.0439 66.1528 67.9927C67.7226 69.5625 70.1721 67.1302 68.5851 65.5604C66.0148 62.9901 63.4617 60.437 60.8914 57.8667C56.803 53.7783 52.7147 49.69 48.6263 45.6016C47.6775 44.6529 46.7288 43.7041 45.78 42.7553C44.2102 41.1855 41.7779 43.6178 43.3477 45.1876Z" fill="#118AB2"/>
<path d="M12.5557 30.8525C17.5756 26.1604 22.6127 21.4855 27.6326 16.7934C28.3398 16.1379 29.0471 15.4824 29.7544 14.8096C28.9436 14.8096 28.1328 14.8096 27.3221 14.8096C30.3064 18.0009 33.2907 21.2095 36.2578 24.4008C36.9133 25.0909 38.0346 25.0219 38.6901 24.4008C44.9175 18.5874 51.1622 12.774 57.3896 6.96064C58.2694 6.13262 59.1664 5.3046 60.0462 4.47658C61.6677 2.95854 59.2354 0.526222 57.6138 2.04426C51.3864 7.85766 45.1418 13.6711 38.9144 19.4845C38.0346 20.3125 37.1376 21.1405 36.2578 21.9685C37.0686 21.9685 37.8793 21.9685 38.6901 21.9685C35.7058 18.7772 32.7214 15.5686 29.7544 12.3773C29.0989 11.6873 27.9776 11.7563 27.3221 12.3773C22.3022 17.0694 17.265 21.7443 12.2452 26.4364C11.5379 27.0919 10.8306 27.7474 10.1234 28.4202C8.48457 29.921 10.9341 32.3706 12.5557 30.8525Z" fill="#118AB2"/>
<path d="M40.6912 5.99465C46.1423 5.61514 51.5762 5.21838 57.0273 4.83887C57.8036 4.78712 58.5799 4.73537 59.3561 4.66637C58.8041 3.94185 58.2521 3.21733 57.7001 2.47556C56.9411 7.87495 56.1648 13.2743 55.4058 18.691C55.3023 19.4673 55.1815 20.2263 55.078 21.0025C54.94 21.9168 55.3023 22.8483 56.2856 23.1243C57.0963 23.3486 58.2694 22.8483 58.4074 21.9168C59.1664 16.5174 59.9427 11.118 60.7017 5.70139C60.8052 4.92512 60.9259 4.1661 61.0294 3.38983C61.1674 2.37206 60.6154 1.11277 59.3734 1.19902C53.9223 1.57853 48.4884 1.9753 43.0372 2.3548C42.261 2.40656 41.4847 2.45831 40.7084 2.52731C39.7769 2.59631 38.9834 3.26908 38.9834 4.25235C38.9661 5.14938 39.7596 6.0464 40.6912 5.99465Z" fill="#118AB2"/>
</svg>
