<svg width="64" height="69" viewBox="0 0 64 69" fill="none" xmlns="http://www.w3.org/2000/svg">
<path d="M29.7772 15.7961C29.7739 16.3173 29.3522 16.7357 28.831 16.739C26.5135 16.7357 24.2393 17.3632 22.2473 18.5485C20.2552 19.737 18.6217 21.4402 17.5195 23.4788C17.2705 23.937 16.6961 24.1063 16.2379 23.8573C15.7798 23.6083 15.6104 23.0372 15.8594 22.579C17.1244 20.2417 18.9969 18.2895 21.2811 16.9283C23.5653 15.567 26.1749 14.8499 28.831 14.8499C29.3522 14.8499 29.7772 15.2748 29.7772 15.7961ZM15.6801 25.2984C15.4377 25.2353 15.1788 25.2719 14.963 25.4013C14.7505 25.5308 14.5944 25.74 14.5314 25.9824C14.2359 27.1643 14.0865 28.3794 14.0865 29.6012C14.0865 30.1225 14.5081 30.5441 15.0294 30.5441C15.5506 30.5441 15.9756 30.1225 15.9756 29.6012C15.9723 28.5355 16.1051 27.4764 16.3641 26.4439C16.4272 26.2015 16.3873 25.9425 16.2612 25.7267C16.1317 25.5142 15.9225 25.3582 15.6801 25.2984ZM28.8312 8.17382C29.3525 8.17382 29.7775 7.75218 29.7775 7.2309V1.70629C29.7775 1.18503 29.3525 0.760047 28.8312 0.760047C28.31 0.760047 27.8883 1.18502 27.8883 1.70629V7.2309C27.8883 7.47991 27.9879 7.72227 28.1639 7.89824C28.3432 8.0742 28.5822 8.17382 28.8312 8.17382ZM45.3184 44.751L45.3217 44.7543C44.9532 44.3825 44.3523 44.3825 43.9837 44.751C43.6152 45.1195 43.6152 45.7171 43.9837 46.089L47.8948 50.0001L47.8915 49.9967C48.2633 50.3586 48.851 50.352 49.2162 49.9868C49.5814 49.6216 49.5847 49.0339 49.2262 48.6621L45.3184 44.751ZM12.3398 14.4489H12.3432C12.5191 14.6315 12.7615 14.7345 13.0138 14.7378C13.2661 14.7378 13.5085 14.6382 13.6878 14.4622C13.8671 14.2829 13.9667 14.0372 13.9667 13.7849C13.9634 13.5326 13.8604 13.2902 13.6778 13.1143L9.76674 9.20317L9.77006 9.20649C9.39822 8.84791 8.80725 8.85124 8.44535 9.21645C8.08014 9.58166 8.0735 10.1693 8.43207 10.5412L12.3398 14.4489ZM6.45995 28.6557H0.93534C0.414089 28.6557 -0.00758362 29.0807 -0.00758362 29.6019C-0.00758362 30.1232 0.414063 30.5448 0.93534 30.5448H6.45995C6.9812 30.5448 7.40288 30.1232 7.40288 29.6019C7.40288 29.0806 6.98123 28.6557 6.45995 28.6557ZM12.3465 44.7519L8.43538 48.6629C8.25278 48.8389 8.14985 49.0813 8.14985 49.3336C8.14653 49.5892 8.24614 49.8316 8.42542 50.0109C8.60471 50.1869 8.85039 50.2865 9.10272 50.2865C9.35505 50.2831 9.59741 50.1802 9.77338 49.9976L13.6845 46.0865H13.6811C13.8637 45.9106 13.9667 45.6682 13.97 45.4159C13.97 45.1635 13.8704 44.9212 13.6911 44.7419C13.5118 44.5626 13.2695 44.463 13.0171 44.4663C12.7648 44.4663 12.5224 44.5692 12.3465 44.7519ZM63.5324 51.3555C63.2037 51.5447 62.7987 51.5215 62.4965 51.2957L55.4181 46.0001C55.3152 45.9238 55.2256 45.8275 55.1625 45.7179L47.5031 32.441C46.8225 35.0639 45.2919 37.627 43.602 40.4789C41.5402 43.7525 39.7872 47.2087 38.3629 50.804C39.0502 51.0264 39.5117 51.6672 39.5117 52.3844V56.4648C39.5117 57.3844 38.7647 58.1314 37.845 58.1314H37.3105L37.3138 61.9894C37.3105 62.909 36.5635 63.656 35.6439 63.656H34.598V65.1335V65.1301C34.598 66.9894 33.094 68.4967 31.2348 68.5H26.4307C24.5714 68.4967 23.0675 66.9927 23.0641 65.1335V63.656H22.0183C21.102 63.6527 20.355 62.909 20.355 61.9894V58.1314H19.8204C18.8975 58.1281 18.1538 57.3844 18.1538 56.4648V52.3844C18.1538 51.6639 18.6153 51.0264 19.2992 50.8007C17.8749 47.205 16.1219 43.7521 14.0634 40.4781C11.7693 36.6135 9.78382 33.2769 9.78382 29.5981C9.78714 23.343 12.8615 17.4864 18.011 13.9303C23.1571 10.3744 29.724 9.571 35.5776 11.7822L33.4328 8.06703C31.8857 5.38776 32.3505 2.20711 34.472 0.985325C35.6108 0.37443 36.972 0.337908 38.144 0.889043C39.4057 1.45678 40.4515 2.4163 41.1288 3.62815L62.8617 41.2712C62.9248 41.3807 62.968 41.5069 62.9813 41.633L64.0005 50.4248C64.047 50.8033 63.8611 51.1685 63.5324 51.3545L63.5324 51.3555ZM35.0696 7.12882L37.1713 10.771L41.5903 8.22116L39.4886 4.579C39.0139 3.72574 38.2834 3.04511 37.397 2.6334C36.7728 2.318 36.0391 2.318 35.415 2.6334C34.2198 3.31734 34.0603 5.37913 35.0696 7.12882ZM32.7091 63.6567H24.9534V65.1341V65.1308C24.9567 65.9475 25.6141 66.6082 26.4308 66.6082H31.2349C32.0484 66.6082 32.7091 65.9475 32.7091 65.1308V63.6567ZM35.4216 58.132H22.2407V61.7675H35.425L35.4216 58.132ZM37.6228 52.6074H20.0392V56.2429H37.6228V52.6074ZM45.9894 29.8214L37.218 14.6287C31.9059 11.6539 25.4115 11.717 20.1563 14.7947C14.9006 17.8757 11.6702 23.51 11.6702 29.6024C11.6702 32.7564 13.4431 35.7379 15.6875 39.5127C17.9219 43.0519 19.7944 46.8069 21.2818 50.7183H27.9718V36.5846C24.3363 36.1464 21.6005 33.0654 21.5939 29.4033C21.5939 28.882 22.0189 28.4604 22.5401 28.4604C23.0614 28.4604 23.4831 28.882 23.4831 29.4033C23.4831 32.3582 25.8802 34.752 28.8317 34.752C31.7866 34.752 34.1837 32.3582 34.1837 29.4033C34.1837 28.882 34.6054 28.4604 35.1267 28.4604C35.6479 28.4604 36.0696 28.882 36.0696 29.4033C36.0663 33.0023 33.4235 36.0534 29.861 36.568V50.7178H36.385C37.8724 46.8068 39.7449 43.0551 41.9793 39.5156C44.1705 35.8271 45.9097 32.8955 45.9894 29.8214ZM56.3315 43.955L60.7505 41.4052L42.5363 9.85458L38.1173 12.4044L56.3315 43.955ZM61.8727 48.4703L61.2717 43.2843L57.7027 45.3461L61.8727 48.4703Z" fill="#118AB2"/>
</svg>
