<svg width="40" height="43" viewBox="0 0 40 43" fill="none" xmlns="http://www.w3.org/2000/svg">
<path d="M18.6111 9.55779C18.609 9.8835 18.3455 10.1449 18.0198 10.147C16.5718 10.1449 15.1507 10.537 13.906 11.2776C12.6612 12.0203 11.6406 13.0845 10.9518 14.3583C10.7962 14.6446 10.4373 14.7504 10.151 14.5948C9.86475 14.4392 9.75894 14.0824 9.91454 13.7961C10.705 12.3356 11.875 11.1158 13.3023 10.2653C14.7296 9.41467 16.3602 8.96659 18.0198 8.96659C18.3455 8.96659 18.6111 9.23208 18.6111 9.55779ZM9.80248 15.4953C9.65104 15.4559 9.48923 15.4787 9.35438 15.5597C9.22161 15.6406 9.1241 15.7713 9.08469 15.9227C8.90005 16.6612 8.8067 17.4205 8.8067 18.184C8.8067 18.5097 9.07016 18.7731 9.39588 18.7731C9.72159 18.7731 9.98714 18.5097 9.98714 18.184C9.98507 17.518 10.068 16.8562 10.2299 16.2111C10.2693 16.0596 10.2444 15.8978 10.1656 15.763C10.0847 15.6302 9.95392 15.5327 9.80248 15.4953ZM18.02 4.795C18.3457 4.795 18.6112 4.53154 18.6112 4.20582V0.75375C18.6112 0.428045 18.3457 0.162491 18.02 0.162491C17.6943 0.162491 17.4308 0.428035 17.4308 0.75375V4.20582C17.4308 4.36141 17.493 4.51285 17.603 4.6228C17.715 4.73275 17.8644 4.795 18.02 4.795ZM28.322 27.6503L28.3241 27.6524C28.0938 27.4201 27.7183 27.4201 27.4881 27.6503C27.2578 27.8806 27.2578 28.254 27.4881 28.4864L29.9319 30.9302L29.9298 30.9281C30.1622 31.1543 30.5294 31.1501 30.7576 30.9219C30.9858 30.6937 30.9879 30.3265 30.7638 30.0942L28.322 27.6503ZM7.71531 8.71602H7.71739C7.82734 8.83012 7.97878 8.89443 8.13645 8.8965C8.29412 8.8965 8.44555 8.83426 8.55758 8.72431C8.66961 8.61229 8.73184 8.45877 8.73184 8.3011C8.72977 8.14343 8.66546 7.99199 8.55136 7.88204L6.10751 5.43819L6.10958 5.44027C5.87723 5.21621 5.50797 5.21829 5.28183 5.44649C5.05363 5.67469 5.04948 6.04189 5.27353 6.27424L7.71531 8.71602ZM4.04125 17.5931H0.589188C0.263483 17.5931 0 17.8587 0 18.1844C0 18.5101 0.263467 18.7736 0.589188 18.7736H4.04125C4.36696 18.7736 4.63044 18.5101 4.63044 18.1844C4.63044 17.8587 4.36697 17.5931 4.04125 17.5931ZM7.71945 27.6509L5.27561 30.0947C5.16151 30.2047 5.09719 30.3561 5.09719 30.5138C5.09512 30.6735 5.15735 30.825 5.26938 30.937C5.38141 31.0469 5.53492 31.1092 5.69259 31.1092C5.85026 31.1071 6.0017 31.0428 6.11165 30.9287L8.5555 28.4848H8.55343C8.66753 28.3749 8.73184 28.2234 8.73391 28.0658C8.73391 27.9081 8.67167 27.7567 8.55965 27.6446C8.44762 27.5326 8.29619 27.4704 8.13852 27.4725C7.98085 27.4725 7.82941 27.5368 7.71945 27.6509ZM39.7031 31.7771C39.4977 31.8954 39.2446 31.8809 39.0558 31.7398L34.6329 28.4309C34.5686 28.3831 34.5126 28.323 34.4731 28.2545L29.6871 19.9584C29.2618 21.5973 28.3055 23.1989 27.2495 24.9809C25.9612 27.0264 24.8659 29.186 23.9759 31.4325C24.4053 31.5715 24.6937 31.9719 24.6937 32.42V34.9697C24.6937 35.5443 24.2269 36.0111 23.6523 36.0111H23.3183L23.3204 38.4218C23.3183 38.9964 22.8515 39.4632 22.2769 39.4632H21.6234V40.3864V40.3843C21.6234 41.546 20.6836 42.4879 19.5219 42.4899H16.52C15.3582 42.4879 14.4185 41.5481 14.4164 40.3864V39.4632H13.7629C13.1903 39.4611 12.7236 38.9964 12.7236 38.4218V36.0111H12.3896C11.8129 36.009 11.3482 35.5443 11.3482 34.9697V32.42C11.3482 31.9699 11.6365 31.5715 12.0639 31.4305C11.1739 29.1837 10.0785 27.0262 8.79231 24.9804C7.3588 22.5656 6.11818 20.4807 6.11818 18.182C6.12025 14.2735 8.0413 10.614 11.2589 8.39192C14.4745 6.17007 18.5778 5.66803 22.2354 7.04971L20.8953 4.72827C19.9286 3.05413 20.219 1.06669 21.5447 0.303256C22.2562 -0.0784627 23.1068 -0.101284 23.8391 0.243094C24.6275 0.597844 25.2809 1.1974 25.7041 1.95463L39.284 25.4759C39.3234 25.5444 39.3504 25.6232 39.3587 25.7021L39.9956 31.1956C40.0246 31.4321 39.9085 31.6609 39.7031 31.7771ZM21.9181 4.14203L23.2313 6.41785L25.9925 4.82458L24.6793 2.54877C24.3826 2.01561 23.9262 1.59032 23.3723 1.33306C22.9823 1.13598 22.5238 1.13598 22.1338 1.33306C21.387 1.76042 21.2874 3.04874 21.9181 4.14203ZM20.4431 39.4636H15.5969V40.3868V40.3847C15.599 40.895 16.0097 41.3079 16.5201 41.3079H19.522C20.0302 41.3079 20.4431 40.895 20.4431 40.3847V39.4636ZM22.138 36.0115H13.9019V38.2831H22.1401L22.138 36.0115ZM23.5134 32.5594H12.5263V34.8311H23.5134V32.5594ZM28.7413 18.3215L23.2605 8.82834C19.9412 6.96954 15.8832 7.00895 12.5995 8.93207C9.31542 10.8573 7.29687 14.3778 7.29687 18.1847C7.29687 20.1555 8.40466 22.0185 9.8071 24.3771C11.2033 26.5886 12.3733 28.9349 13.3027 31.379H17.483V22.5475C15.2113 22.2737 13.5019 20.3485 13.4977 18.0603C13.4977 17.7346 13.7633 17.4711 14.089 17.4711C14.4147 17.4711 14.6782 17.7346 14.6782 18.0603C14.6782 19.9067 16.176 21.4024 18.0203 21.4024C19.8667 21.4024 21.3645 19.9067 21.3645 18.0603C21.3645 17.7346 21.628 17.4711 21.9537 17.4711C22.2794 17.4711 22.5429 17.7346 22.5429 18.0603C22.5408 20.3091 20.8895 22.2156 18.6635 22.5372V31.3787H22.74C23.6694 28.9349 24.8394 26.5907 26.2356 24.379C27.6048 22.0742 28.6915 20.2424 28.7413 18.3215ZM35.2036 27.153L37.9648 25.5597L26.5836 5.84523L23.8224 7.43849L35.2036 27.153ZM38.666 29.9744L38.2905 26.7339L36.0604 28.0222L38.666 29.9744Z" fill="black"/>
</svg>
