<svg width="80" height="69" viewBox="0 0 80 69" fill="none" xmlns="http://www.w3.org/2000/svg">
<path d="M26.6541 30.2224C26.1716 29.7398 25.389 29.7398 24.9034 30.2224L15.3149 39.8109C15.0829 40.0429 14.953 40.3584 14.953 40.6863C14.953 41.0142 15.0829 41.3296 15.3149 41.5616L24.9034 51.1501C25.3921 51.611 26.1561 51.6017 26.6325 51.1285C27.1057 50.6521 27.115 49.8881 26.6541 49.4025L17.9375 40.6858L26.6541 31.9692C27.1367 31.4866 27.1367 30.704 26.6541 30.2215L26.6541 30.2224Z" fill="#118AB2"/>
<path d="M55.0924 30.2224C54.8604 29.9811 54.5418 29.8419 54.2108 29.8388C53.8767 29.8326 53.5551 29.9626 53.32 30.2007C53.0818 30.4358 52.9519 30.7575 52.9581 31.0916C52.9612 31.4225 53.1004 31.7411 53.3416 31.97L62.0583 40.6867L53.3416 49.4034C53.1003 49.6323 52.9612 49.9509 52.9581 50.2819C52.9519 50.6159 53.0818 50.9376 53.32 51.1727C53.5551 51.4109 53.8767 51.5408 54.2108 51.5346C54.5418 51.5315 54.8604 51.3923 55.0924 51.151L64.6809 41.5625C64.9128 41.3305 65.0428 41.015 65.0428 40.6871C65.0428 40.3592 64.9128 40.0438 64.6809 39.8118L55.0924 30.2224Z" fill="#118AB2"/>
<path d="M48.3342 20.4447C48.0311 20.3179 47.6909 20.3179 47.3877 20.4447C47.0846 20.5715 46.8433 20.8128 46.7165 21.1159L30.988 59.3163H30.9911C30.7282 59.9473 31.0313 60.6711 31.6623 60.931C32.2964 61.1908 33.0171 60.8908 33.2801 60.2597L49.0086 22.0594H49.0055C49.2684 21.4253 48.9652 20.7046 48.3342 20.4447Z" fill="#118AB2"/>
<path d="M72.9995 0.5H6.99737C3.65672 0.506186 0.950262 3.21271 0.947174 6.55329V62.4467C0.950267 65.7874 3.6568 68.4938 6.99737 68.5H72.9995C76.3402 68.4938 79.0466 65.7873 79.0528 62.4467V6.55329C79.0466 3.21264 76.3401 0.506176 72.9995 0.5ZM72.9995 66.0223L6.99737 66.0254C5.02393 66.0223 3.4217 64.4201 3.41861 62.4466V15.7648H25.7511C26.4347 15.7648 26.9884 15.2111 26.9884 14.5275C26.9884 13.8439 26.4347 13.2903 25.7511 13.2903H3.41861V6.55337C3.42171 4.57993 5.02393 2.9777 6.99737 2.97461H72.9995C74.973 2.9777 76.5752 4.57993 76.5783 6.55337V13.2903H35.6928C35.0092 13.2903 34.4555 13.8439 34.4555 14.5275C34.4555 15.2111 35.0092 15.7648 35.6928 15.7648H76.5783V62.4466C76.5752 64.4201 74.973 66.0223 72.9995 66.0254V66.0223Z" fill="#118AB2"/>
<path d="M49.5132 8.86698H70.9858C71.6694 8.86698 72.2231 8.31331 72.2231 7.62972C72.2231 6.94613 71.6694 6.39246 70.9858 6.39246H49.5132C48.8296 6.39246 48.276 6.94613 48.276 7.62972C48.276 8.31331 48.8296 8.86698 49.5132 8.86698Z" fill="#118AB2"/>
<path d="M10.2669 8.50837C10.2669 10.2282 7.68408 10.2282 7.68408 8.50837C7.68408 6.78855 10.2669 6.78855 10.2669 8.50837Z" fill="#118AB2"/>
<path d="M17.1464 8.50837C17.1464 10.2282 14.5667 10.2282 14.5667 8.50837C14.5667 6.78855 17.1464 6.78855 17.1464 8.50837Z" fill="#118AB2"/>
<path d="M24.0252 8.50837C24.0252 10.2282 21.4455 10.2282 21.4455 8.50837C21.4455 6.78855 24.0252 6.78855 24.0252 8.50837Z" fill="#118AB2"/>
</svg>
